<mxfile modified="2023-05-17T13:10:04.350Z" host="app.diagrams.net" agent="Mozilla/5.0 (Windows NT 10.0; Win64; x64) AppleWebKit/537.36 (KHTML, like Gecko) Chrome/113.0.0.0 Safari/537.36" etag="lAPxCuAuM0EWyCs1peLg" version="21.2.9" type="github">
  <diagram name="Page-1" id="97a40813-6b03-0c74-37c1-0168de264b11">
    <mxGraphModel dx="1197" dy="730" grid="1" gridSize="10" guides="1" tooltips="1" connect="1" arrows="1" fold="1" page="1" pageScale="1" pageWidth="1000" pageHeight="1000" background="#ffffff" math="0" shadow="0">
      <root>
        <mxCell id="0" />
        <mxCell id="1" parent="0" />
        <mxCell id="Qi-17UUt7fFOQF3v8ojv-3" value="" style="rounded=0;whiteSpace=wrap;html=1;" vertex="1" parent="1">
          <mxGeometry width="220" height="190" as="geometry" />
        </mxCell>
        <mxCell id="Qi-17UUt7fFOQF3v8ojv-1" value="File System&amp;nbsp;&lt;br&gt;(Dropbox)" style="shape=cylinder3;whiteSpace=wrap;html=1;boundedLbl=1;backgroundOutline=1;size=15;" vertex="1" parent="1">
          <mxGeometry x="10" y="20" width="70" height="80" as="geometry" />
        </mxCell>
        <mxCell id="Qi-17UUt7fFOQF3v8ojv-4" value="Author_2023_&lt;br&gt;PaperTitle.pdf" style="shape=note;whiteSpace=wrap;html=1;backgroundOutline=1;darkOpacity=0.05;size=10;" vertex="1" parent="1">
          <mxGeometry x="30" y="90" width="120" height="40" as="geometry" />
        </mxCell>
        <mxCell id="Qi-17UUt7fFOQF3v8ojv-14" value="File Listings" style="shape=note;whiteSpace=wrap;html=1;backgroundOutline=1;darkOpacity=0.05;size=10;" vertex="1" parent="1">
          <mxGeometry x="30" y="140" width="120" height="40" as="geometry" />
        </mxCell>
        <mxCell id="Qi-17UUt7fFOQF3v8ojv-16" value="IndexDB" style="shape=cylinder3;whiteSpace=wrap;html=1;boundedLbl=1;backgroundOutline=1;size=15;" vertex="1" parent="1">
          <mxGeometry x="285" y="10" width="70" height="80" as="geometry" />
        </mxCell>
        <mxCell id="Qi-17UUt7fFOQF3v8ojv-17" value="&lt;i&gt;Microsoft Academic Graph&lt;/i&gt;" style="rounded=0;whiteSpace=wrap;html=1;strokeColor=#E6E6E6;fontColor=#CCCCCC;" vertex="1" parent="1">
          <mxGeometry x="630" y="30" width="180" height="40" as="geometry" />
        </mxCell>
        <mxCell id="Qi-17UUt7fFOQF3v8ojv-19" value="lively4server" style="text;html=1;strokeColor=none;fillColor=none;align=center;verticalAlign=middle;whiteSpace=wrap;rounded=0;" vertex="1" parent="1">
          <mxGeometry x="150" y="10" width="60" height="30" as="geometry" />
        </mxCell>
        <mxCell id="Qi-17UUt7fFOQF3v8ojv-21" value="" style="rounded=0;whiteSpace=wrap;html=1;" vertex="1" parent="1">
          <mxGeometry x="60" y="400" width="140" height="170" as="geometry" />
        </mxCell>
        <mxCell id="Qi-17UUt7fFOQF3v8ojv-22" value="literature.js" style="text;html=1;strokeColor=none;fillColor=none;align=center;verticalAlign=middle;whiteSpace=wrap;rounded=0;" vertex="1" parent="1">
          <mxGeometry x="60" y="400" width="90" height="30" as="geometry" />
        </mxCell>
        <mxCell id="Qi-17UUt7fFOQF3v8ojv-27" value="Author" style="rounded=0;whiteSpace=wrap;html=1;" vertex="1" parent="1">
          <mxGeometry x="80" y="450" width="100" height="30" as="geometry" />
        </mxCell>
        <mxCell id="Qi-17UUt7fFOQF3v8ojv-28" value="Paper" style="rounded=0;whiteSpace=wrap;html=1;" vertex="1" parent="1">
          <mxGeometry x="80" y="490" width="100" height="30" as="geometry" />
        </mxCell>
        <mxCell id="Qi-17UUt7fFOQF3v8ojv-29" value="Literature" style="rounded=0;whiteSpace=wrap;html=1;" vertex="1" parent="1">
          <mxGeometry x="80" y="530" width="100" height="30" as="geometry" />
        </mxCell>
        <mxCell id="Qi-17UUt7fFOQF3v8ojv-30" value="&lt;i&gt;Semantic Scholoar&lt;/i&gt;" style="rounded=0;whiteSpace=wrap;html=1;strokeColor=#000000;fontColor=#000000;" vertex="1" parent="1">
          <mxGeometry x="630" y="150" width="180" height="40" as="geometry" />
        </mxCell>
        <mxCell id="Qi-17UUt7fFOQF3v8ojv-31" value="&lt;i&gt;Google Scholar&lt;/i&gt;" style="rounded=0;whiteSpace=wrap;html=1;strokeColor=#E6E6E6;fontColor=#CCCCCC;" vertex="1" parent="1">
          <mxGeometry x="630" y="90" width="180" height="40" as="geometry" />
        </mxCell>
        <mxCell id="Qi-17UUt7fFOQF3v8ojv-32" value="shut-down" style="text;html=1;strokeColor=none;fillColor=none;align=center;verticalAlign=middle;whiteSpace=wrap;rounded=0;fontColor=#FF0000;" vertex="1" parent="1">
          <mxGeometry x="750" y="50" width="60" height="30" as="geometry" />
        </mxCell>
        <mxCell id="Qi-17UUt7fFOQF3v8ojv-34" value="no API" style="text;html=1;strokeColor=none;fillColor=none;align=center;verticalAlign=middle;whiteSpace=wrap;rounded=0;fontColor=#FF0000;" vertex="1" parent="1">
          <mxGeometry x="750" y="110" width="60" height="30" as="geometry" />
        </mxCell>
        <mxCell id="Qi-17UUt7fFOQF3v8ojv-35" value="&lt;i&gt;Open Alex&lt;/i&gt;" style="rounded=0;whiteSpace=wrap;html=1;strokeColor=#000000;fontColor=#000000;" vertex="1" parent="1">
          <mxGeometry x="630" y="210" width="180" height="40" as="geometry" />
        </mxCell>
        <mxCell id="Qi-17UUt7fFOQF3v8ojv-36" value="MAG replacement?" style="text;html=1;strokeColor=none;fillColor=none;align=center;verticalAlign=middle;whiteSpace=wrap;rounded=0;fontColor=#FF0000;" vertex="1" parent="1">
          <mxGeometry x="700" y="230" width="120" height="30" as="geometry" />
        </mxCell>
        <mxCell id="Qi-17UUt7fFOQF3v8ojv-37" value="no keywords etc" style="text;html=1;strokeColor=none;fillColor=none;align=center;verticalAlign=middle;whiteSpace=wrap;rounded=0;fontColor=#FF0000;" vertex="1" parent="1">
          <mxGeometry x="700" y="170" width="120" height="30" as="geometry" />
        </mxCell>
        <mxCell id="Qi-17UUt7fFOQF3v8ojv-38" value="&lt;i&gt;&lt;b&gt;scholar://&lt;/b&gt;&amp;nbsp;&lt;/i&gt;" style="rounded=0;whiteSpace=wrap;html=1;strokeColor=#000000;fontColor=#000000;" vertex="1" parent="1">
          <mxGeometry x="530" y="160" width="70" height="40" as="geometry" />
        </mxCell>
        <mxCell id="Qi-17UUt7fFOQF3v8ojv-39" value="" style="shape=flexArrow;endArrow=classic;startArrow=classic;html=1;rounded=0;exitX=1;exitY=0.5;exitDx=0;exitDy=0;exitPerimeter=0;entryX=0.25;entryY=0;entryDx=0;entryDy=0;" edge="1" parent="1" source="Qi-17UUt7fFOQF3v8ojv-40" target="Qi-17UUt7fFOQF3v8ojv-38">
          <mxGeometry width="100" height="100" relative="1" as="geometry">
            <mxPoint x="420" y="140" as="sourcePoint" />
            <mxPoint x="580" y="150" as="targetPoint" />
            <Array as="points">
              <mxPoint x="548" y="50" />
            </Array>
          </mxGeometry>
        </mxCell>
        <mxCell id="Qi-17UUt7fFOQF3v8ojv-40" value="localStorage" style="shape=cylinder3;whiteSpace=wrap;html=1;boundedLbl=1;backgroundOutline=1;size=15;" vertex="1" parent="1">
          <mxGeometry x="380" y="10" width="70" height="80" as="geometry" />
        </mxCell>
        <mxCell id="Qi-17UUt7fFOQF3v8ojv-41" value="Auth &lt;br&gt;Tokens" style="text;html=1;strokeColor=none;fillColor=none;align=center;verticalAlign=middle;whiteSpace=wrap;rounded=0;" vertex="1" parent="1">
          <mxGeometry x="490" y="10" width="60" height="30" as="geometry" />
        </mxCell>
        <mxCell id="Qi-17UUt7fFOQF3v8ojv-49" value="&lt;i&gt;&lt;b&gt;bib://&lt;/b&gt;&lt;br&gt;&lt;/i&gt;" style="rounded=0;whiteSpace=wrap;html=1;strokeColor=#000000;fontColor=#000000;" vertex="1" parent="1">
          <mxGeometry x="290" y="260" width="70" height="40" as="geometry" />
        </mxCell>
        <mxCell id="Qi-17UUt7fFOQF3v8ojv-50" value="src/client/" style="text;html=1;strokeColor=none;fillColor=none;align=center;verticalAlign=middle;whiteSpace=wrap;rounded=0;" vertex="1" parent="1">
          <mxGeometry x="20" y="360" width="60" height="30" as="geometry" />
        </mxCell>
        <mxCell id="Qi-17UUt7fFOQF3v8ojv-51" value="" style="rounded=0;whiteSpace=wrap;html=1;" vertex="1" parent="1">
          <mxGeometry x="220" y="400" width="140" height="170" as="geometry" />
        </mxCell>
        <mxCell id="Qi-17UUt7fFOQF3v8ojv-52" value="bibliography.js" style="text;html=1;strokeColor=none;fillColor=none;align=center;verticalAlign=middle;whiteSpace=wrap;rounded=0;" vertex="1" parent="1">
          <mxGeometry x="220" y="400" width="100" height="30" as="geometry" />
        </mxCell>
        <mxCell id="Qi-17UUt7fFOQF3v8ojv-56" value="" style="group" vertex="1" connectable="0" parent="1">
          <mxGeometry x="670" y="410" width="160" height="40" as="geometry" />
        </mxCell>
        <mxCell id="Qi-17UUt7fFOQF3v8ojv-47" value="" style="rounded=0;whiteSpace=wrap;html=1;" vertex="1" parent="Qi-17UUt7fFOQF3v8ojv-56">
          <mxGeometry width="160" height="40" as="geometry" />
        </mxCell>
        <mxCell id="Qi-17UUt7fFOQF3v8ojv-48" value="literature-paper" style="text;html=1;strokeColor=none;fillColor=none;align=center;verticalAlign=middle;whiteSpace=wrap;rounded=0;" vertex="1" parent="Qi-17UUt7fFOQF3v8ojv-56">
          <mxGeometry x="10" y="10" width="90" height="20" as="geometry" />
        </mxCell>
        <mxCell id="Qi-17UUt7fFOQF3v8ojv-57" value="" style="group" vertex="1" connectable="0" parent="1">
          <mxGeometry x="670" y="470" width="140" height="40" as="geometry" />
        </mxCell>
        <mxCell id="Qi-17UUt7fFOQF3v8ojv-58" value="" style="rounded=0;whiteSpace=wrap;html=1;" vertex="1" parent="Qi-17UUt7fFOQF3v8ojv-57">
          <mxGeometry width="140" height="40" as="geometry" />
        </mxCell>
        <mxCell id="Qi-17UUt7fFOQF3v8ojv-59" value="lively-bibtex" style="text;html=1;strokeColor=none;fillColor=none;align=center;verticalAlign=middle;whiteSpace=wrap;rounded=0;" vertex="1" parent="Qi-17UUt7fFOQF3v8ojv-57">
          <mxGeometry x="8.75" y="10" width="78.75" height="20" as="geometry" />
        </mxCell>
        <mxCell id="Qi-17UUt7fFOQF3v8ojv-60" value="&lt;i style=&quot;font-size: 8px;&quot;&gt;browse&lt;/i&gt;" style="rounded=0;whiteSpace=wrap;html=1;strokeColor=#000000;fontColor=#000000;fontSize=8;" vertex="1" parent="1">
          <mxGeometry x="530" y="200" width="40" height="20" as="geometry" />
        </mxCell>
        <mxCell id="Qi-17UUt7fFOQF3v8ojv-61" value="&lt;i style=&quot;font-size: 8px;&quot;&gt;data&lt;/i&gt;" style="rounded=0;whiteSpace=wrap;html=1;strokeColor=#000000;fontColor=#000000;fontSize=8;" vertex="1" parent="1">
          <mxGeometry x="570" y="200" width="30" height="20" as="geometry" />
        </mxCell>
        <mxCell id="Qi-17UUt7fFOQF3v8ojv-62" value="" style="group" vertex="1" connectable="0" parent="1">
          <mxGeometry x="670" y="520" width="140" height="40" as="geometry" />
        </mxCell>
        <mxCell id="Qi-17UUt7fFOQF3v8ojv-63" value="" style="rounded=0;whiteSpace=wrap;html=1;" vertex="1" parent="Qi-17UUt7fFOQF3v8ojv-62">
          <mxGeometry width="140" height="40" as="geometry" />
        </mxCell>
        <mxCell id="Qi-17UUt7fFOQF3v8ojv-64" value="lively-bibtex-entry" style="text;html=1;strokeColor=none;fillColor=none;align=center;verticalAlign=middle;whiteSpace=wrap;rounded=0;" vertex="1" parent="Qi-17UUt7fFOQF3v8ojv-62">
          <mxGeometry y="10" width="140" height="20" as="geometry" />
        </mxCell>
        <mxCell id="Qi-17UUt7fFOQF3v8ojv-67" value="" style="rounded=0;whiteSpace=wrap;html=1;" vertex="1" parent="1">
          <mxGeometry x="380" y="400" width="140" height="170" as="geometry" />
        </mxCell>
        <mxCell id="Qi-17UUt7fFOQF3v8ojv-68" value="fileindex.js" style="text;html=1;strokeColor=none;fillColor=none;align=center;verticalAlign=middle;whiteSpace=wrap;rounded=0;" vertex="1" parent="1">
          <mxGeometry x="380" y="400" width="100" height="30" as="geometry" />
        </mxCell>
        <mxCell id="Qi-17UUt7fFOQF3v8ojv-70" value="&lt;span style=&quot;font-size: 30px; font-weight: normal;&quot;&gt;Files&lt;/span&gt;" style="text;html=1;strokeColor=none;fillColor=none;align=center;verticalAlign=middle;whiteSpace=wrap;rounded=0;fontSize=30;fontStyle=1;fontColor=#003366;" vertex="1" parent="1">
          <mxGeometry x="200" y="680" width="60" height="30" as="geometry" />
        </mxCell>
        <mxCell id="Qi-17UUt7fFOQF3v8ojv-71" value="&lt;span style=&quot;font-size: 30px; font-weight: normal;&quot;&gt;Bibliography&lt;/span&gt;" style="text;html=1;strokeColor=none;fillColor=none;align=center;verticalAlign=middle;whiteSpace=wrap;rounded=0;fontSize=30;fontStyle=1;fontColor=#003366;" vertex="1" parent="1">
          <mxGeometry x="370" y="680" width="170" height="30" as="geometry" />
        </mxCell>
        <mxCell id="Qi-17UUt7fFOQF3v8ojv-72" value="&lt;span style=&quot;font-size: 30px; font-weight: normal;&quot;&gt;Scholar Graphs&lt;/span&gt;" style="text;html=1;strokeColor=none;fillColor=none;align=center;verticalAlign=middle;whiteSpace=wrap;rounded=0;fontSize=30;fontStyle=1;fontColor=#003366;" vertex="1" parent="1">
          <mxGeometry x="650" y="680" width="230" height="30" as="geometry" />
        </mxCell>
        <mxCell id="Qi-17UUt7fFOQF3v8ojv-74" value="&lt;span style=&quot;font-size: 20px; font-weight: normal;&quot;&gt;Browse&lt;/span&gt;" style="text;html=1;strokeColor=none;fillColor=none;align=center;verticalAlign=middle;whiteSpace=wrap;rounded=0;fontSize=20;fontStyle=1;fontColor=#003366;" vertex="1" parent="1">
          <mxGeometry x="395" y="780" width="95" height="30" as="geometry" />
        </mxCell>
        <mxCell id="Qi-17UUt7fFOQF3v8ojv-75" value="&lt;span style=&quot;font-size: 20px; font-weight: normal;&quot;&gt;Explore&lt;/span&gt;" style="text;html=1;strokeColor=none;fillColor=none;align=center;verticalAlign=middle;whiteSpace=wrap;rounded=0;fontSize=20;fontStyle=1;fontColor=#003366;" vertex="1" parent="1">
          <mxGeometry x="425" y="810" width="95" height="30" as="geometry" />
        </mxCell>
        <mxCell id="Qi-17UUt7fFOQF3v8ojv-76" value="&lt;span style=&quot;font-size: 20px; font-weight: normal;&quot;&gt;Analyse&lt;/span&gt;" style="text;html=1;strokeColor=none;fillColor=none;align=center;verticalAlign=middle;whiteSpace=wrap;rounded=0;fontSize=20;fontStyle=1;fontColor=#003366;" vertex="1" parent="1">
          <mxGeometry x="527.5" y="770" width="95" height="30" as="geometry" />
        </mxCell>
        <mxCell id="Qi-17UUt7fFOQF3v8ojv-77" value="&lt;span style=&quot;font-size: 20px; font-weight: normal;&quot;&gt;Visualize&lt;/span&gt;" style="text;html=1;strokeColor=none;fillColor=none;align=center;verticalAlign=middle;whiteSpace=wrap;rounded=0;fontSize=20;fontStyle=1;fontColor=#003366;" vertex="1" parent="1">
          <mxGeometry x="540" y="810" width="95" height="30" as="geometry" />
        </mxCell>
        <mxCell id="Qi-17UUt7fFOQF3v8ojv-78" value="&lt;span style=&quot;font-size: 20px; font-weight: normal;&quot;&gt;Aggregate&lt;/span&gt;" style="text;html=1;strokeColor=none;fillColor=none;align=center;verticalAlign=middle;whiteSpace=wrap;rounded=0;fontSize=20;fontStyle=1;fontColor=#003366;" vertex="1" parent="1">
          <mxGeometry x="510" y="850" width="95" height="30" as="geometry" />
        </mxCell>
        <mxCell id="Qi-17UUt7fFOQF3v8ojv-79" value="&lt;span style=&quot;font-size: 20px; font-weight: normal;&quot;&gt;Reference&lt;/span&gt;" style="text;html=1;strokeColor=none;fillColor=none;align=center;verticalAlign=middle;whiteSpace=wrap;rounded=0;fontSize=20;fontStyle=1;fontColor=#003366;" vertex="1" parent="1">
          <mxGeometry x="385" y="850" width="95" height="30" as="geometry" />
        </mxCell>
        <mxCell id="Qi-17UUt7fFOQF3v8ojv-80" value="&lt;span style=&quot;font-size: 20px; font-weight: normal;&quot;&gt;Search&lt;/span&gt;" style="text;html=1;strokeColor=none;fillColor=none;align=center;verticalAlign=middle;whiteSpace=wrap;rounded=0;fontSize=20;fontStyle=1;fontColor=#003366;" vertex="1" parent="1">
          <mxGeometry x="310" y="800" width="95" height="30" as="geometry" />
        </mxCell>
      </root>
    </mxGraphModel>
  </diagram>
</mxfile>
